<?xml version="1.0" encoding="UTF-8"?><svg id="a" xmlns="http://www.w3.org/2000/svg" viewBox="0 0 24 24"><path d="M14.01,1.67c-2.71.33-6.1,1.77-7.65,4-.29.91,1.09.99,1.74,1.21,2.03.44,4.21,1.09,5.69,2.7,3.67,3.66,1.37,9-2.64,11.23-1.32.69-2.72,1.39-4.29,1.09-1.25-.25-1.72-1.99-1.55-2.91.47-4.88,6.2-9.3,10.21-5.02.99,1.38,1.88,2.84,2.81,4.27.89,1.4,1.75,2.83,2.59,4.27.03.05.01.11-.04.14-2.39-2.24-4.47-5.05-6.62-7.59-2.83-2.48-6.42.73-6.99,4.14-.05.45-.05.81.12.94,2.78.06,5.68-2.21,6.65-4.75,1.44-4.04-2.49-6.95-6.16-7.67C1.08,5.8,11.25,1.22,14,1.47c.13,0,.14.18.02.2h0Z" fill="#f27405" stroke-width="0"/></svg>