<?xml version="1.0" encoding="UTF-8"?><svg id="a" xmlns="http://www.w3.org/2000/svg" viewBox="0 0 24 24"><path d="M14.02,1.72c-2.35.72-4.39,2.08-6.09,3.81-.27.27-.51.66-.4.64.04-.01.14-.25.05-.56-.09-.14-.07-.22-.17-.3-.02-.04,0-.06,0-.06,4.31.53,8.45,2.05,9.88,6.72,1.48,5.32-3.06,10.4-8.01,11.53-3.24.99-6.07-1.23-5.54-4.67.81-5.92,8.13-10.74,12.56-5.27,1.65,2.82,3.34,5.95,4.66,8.93.1.15-.12.34-.24.18,0,0-5.94-7.98-5.94-7.98-1.26-1.34-3.68-1.73-5.26-.47-1.73,1.3-3.57,4.03-2.76,6.21.2.34.63.42,1.1.37,2.85-.45,5.6-2.54,6.59-5.27,1.09-2.9-.95-5.97-3.64-7.09-1.38-.66-2.94-.8-4.35-1.45-1.96-1.2.67-2.99,1.75-3.59,1.73-1.09,3.74-1.82,5.79-1.97.19,0,.21.27.03.3h0Z" fill="#f27405" stroke-width="0"/></svg>