<?xml version="1.0" encoding="UTF-8"?><svg id="a" xmlns="http://www.w3.org/2000/svg" viewBox="0 0 62.68 24"><path d="M11.55,1.09c-2.38.3-4.54,1.42-6.36,2.92-.33.29-.66.64-.75.92-.07.23-.02.26.09.36.4.26.9.34,1.45.48,1.97.39,4.13,1.02,5.59,2.59,3.7,3.64,1.46,9.04-2.53,11.31-1.38.74-2.81,1.46-4.46,1.13-2.9-1.03-1.88-4.81-.74-6.68,1.94-3.51,6.58-4.97,9.46-1.69,1.8,2.69,3.41,5.52,4.86,8.43.07.14-.12.3-.24.18-2.11-1.96-5.01-5.19-6.39-6.83-2.56-2.24-5.43,1.11-5.89,3.59-.07.31,0,.57-.06.48-.03-.06-.2-.13-.22-.13,4-.08,8.21-5.05,4.92-8.63-1.08-1.31-2.8-1.95-4.66-2.49-.73-.25-1.88-.52-2.22-1.38C2.5,3.01,9.54.64,11.53.79c.19,0,.21.27.03.3h0Z" fill="#f27405" stroke-width="0"/><text transform="translate(13.7 8.55)" fill="#f27405" font-family="SpaceMono-Bold, &apos;Space Mono&apos;" font-size="12"><tspan x="0" y="0">antiago</tspan></text><text transform="translate(18.43 21.03)" fill="#f27405" font-family="SpaceMono-Bold, &apos;Space Mono&apos;" font-size="11"><tspan x="0" y="0">nzola</tspan></text></svg>